<svg width="20" height="18" viewBox="0 0 20 18" fill="none" xmlns="http://www.w3.org/2000/svg">
<path d="M12 4.99994V2.99994C12 2.46951 11.7893 1.9608 11.4142 1.58573C11.0391 1.21065 10.5304 0.999939 10 0.999939H3C2.46957 0.999939 1.96086 1.21065 1.58579 1.58573C1.21071 1.9608 1 2.46951 1 2.99994V14.9999C1 15.5304 1.21071 16.0391 1.58579 16.4142C1.96086 16.7892 2.46957 16.9999 3 16.9999H10C10.5304 16.9999 11.0391 16.7892 11.4142 16.4142C11.7893 16.0391 12 15.5304 12 14.9999V12.9999" stroke="#ADA5B6" stroke-width="2" stroke-linecap="round" stroke-linejoin="round"/>
<path d="M5 8.99994H19M19 8.99994L16 5.99994M19 8.99994L16 11.9999" stroke="#ADA5B6" stroke-width="2" stroke-linecap="round" stroke-linejoin="round"/>
</svg>
